<svg xmlns="http://www.w3.org/2000/svg" width="424.19" height="424.19"><path d="M143.794 179.042c-31.501 0-57.123-33.499-57.123-74.666 0-41.167 25.622-74.66 57.123-74.66 31.495 0 57.123 33.493 57.123 74.66 0 41.167-25.628 74.666-57.123 74.666zm0-137.616c-25.042 0-45.413 28.239-45.413 62.95 0 34.717 20.37 62.955 45.413 62.955 25.036 0 45.412-28.238 45.412-62.955 0-34.711-20.376-62.95-45.412-62.95zM292.253 394.474c-15.41 0-28.71-8.755-42.799-18.023-8.497-5.598-17.154-11.293-26.761-15.581-1.39-.298-7.056-1.001-15.57-1.001-7.722 0-11.582.577-12.197.726-9.486 3.969-18.701 9.641-27.618 15.119-15.258 9.389-28.333 17.439-43.563 17.439-7.736 0-15.078-2.207-21.828-6.564-16.028-10.281-25.414-28.144-26.438-50.295-.938-20.208 5.358-41.925 17.717-61.16 1.29-2.002 2.705-3.74 4.177-5.489.577-.698 1.644-1.979 1.901-2.437 14.609-30.02 51.033-62.157 109.399-62.157l2.207.012c59.271.837 95.991 34.757 109.423 63.553.338.721 1.298 2.035 2.15 3.19 1.709 2.311 3.104 4.254 4.368 6.461 24.262 42.72 17.635 92.438-14.764 110.85-6.223 3.555-12.891 5.357-19.804 5.357zm-85.124-46.316c8.554 0 16.753.698 19.499 1.664 11.081 4.866 20.259 10.91 29.139 16.754 12.705 8.371 24.588 16.188 36.492 16.188 4.854 0 9.572-1.286 14.032-3.825 26.795-15.232 31.449-57.786 10.378-94.873-.943-1.658-2.133-3.3-3.482-5.123-1.44-1.956-2.67-3.626-3.487-5.41-11.997-25.696-45.115-56.002-98.928-56.768l-2.124-.012c-52.926 0-85.773 28.738-98.856 55.625-.76 1.543-1.896 2.95-3.419 4.763-1.152 1.378-2.318 2.784-3.308 4.323-11.059 17.205-16.7 36.486-15.868 54.281.843 18.252 8.32 32.815 21.074 40.998 4.837 3.116 10.041 4.699 15.493 4.699 11.916 0 23.678-7.244 37.31-15.633 9.421-5.792 19.047-11.722 29.942-16.228 2.788-.937 8.806-1.423 16.113-1.423zM272.915 179.042c-31.501 0-57.126-33.499-57.126-74.666 0-41.167 25.625-74.66 57.126-74.66 31.5 0 57.129 33.493 57.129 74.66 0 41.167-25.629 74.666-57.129 74.666zm0-137.616c-25.039 0-45.418 28.239-45.418 62.95 0 34.717 20.373 62.955 45.418 62.955 25.039 0 45.418-28.238 45.418-62.955 0-34.711-20.379-62.95-45.418-62.95zM371.259 273.926c-29.676 0-52.926-29.951-52.926-68.189 0-38.248 23.25-68.202 52.926-68.202 29.677 0 52.932 29.954 52.932 68.202-.001 38.233-23.255 68.189-52.932 68.189zm0-124.68c-23.112 0-41.215 24.813-41.215 56.491 0 31.669 18.103 56.479 41.215 56.479s41.222-24.811 41.222-56.479c-.001-31.684-18.11-56.491-41.222-56.491zM52.932 273.926C23.252 273.926 0 243.975 0 205.737c0-38.248 23.252-68.202 52.932-68.202 29.682 0 52.932 29.954 52.932 68.202-.001 38.233-23.25 68.189-52.932 68.189zm0-124.68c-23.115 0-41.221 24.813-41.221 56.491 0 31.669 18.106 56.479 41.221 56.479 23.118 0 41.221-24.811 41.221-56.479 0-31.684-18.103-56.491-41.221-56.491z" fill="#030303"/></svg>